# xmcd CD database file
#
# Track frame offsets:
#	150
#	44461
#	51881
#	101861
#	103918
#	178937
#	179897
#	212577
#	213847
#	242779
#	297354
#
# Disc length: 4797 seconds
#
# Revision: 0
# Processed by: cddbd v1.5.2PL0 Copyright (c) Steve Scherf et al.
# Submitted via: CDex 1.60beta1-cs1
#
DISCID=b212bb0b
DTITLE=Art Pepper - The Legendary 1980 recording session [CD1]
DYEAR=1900
DGENRE=Jazz
TTITLE0=Blues for Blanche
TTITLE1=talk, Intros Cat People
TTITLE2=Ophelia
TTITLE3=talk, Thank you for Coming
TTITLE4=Make a List
TTITLE5=talk, Make a List
TTITLE6=Sad a little Bit
TTITLE7=talk, Clarinet
TTITLE8=Anthropology
TTITLE9=Red Car
TTITLE10=Blues for Bould
EXTD=
EXTT0=
EXTT1=
EXTT2=
EXTT3=
EXTT4=
EXTT5=
EXTT6=
EXTT7=
EXTT8=
EXTT9=
EXTT10=
PLAYORDER=
